# xmcd
#
# Track frame offsets: 
#        150
#        19200
#        46587
#        68352
#        94987
#        113130
#        134637
#        159802
#        185945
#        207085
#
# Disc length: 2978 seconds
#
# Revision: 0
# Processed by: cddbd v1.5.2PL0 Copyright (c) Steve Scherf et al.
# Submitted via: ExactAudioCopy v1.0b3
#
DISCID=820ba00a
DTITLE=Tuan Vu - Tuan Vu Dac Biet
DYEAR=1992
DGENRE=
TTITLE0=No
TTITLE1=Hoa muoi gio
TTITLE2=Nhat ky doi toi
TTITLE3=Thanh pho buon
TTITLE4=Chuyen dem mua
TTITLE5=Dem bo vo
TTITLE6=Chuyen mot nguoi di
TTITLE7=Thu ve em gai thanh do
TTITLE8=Hoa van no tren duong que huong
TTITLE9=Khi em nhin anh
EXTD=
EXTT0=
EXTT1=
EXTT2=
EXTT3=
EXTT4=
EXTT5=
EXTT6=
EXTT7=
EXTT8=
EXTT9=
PLAYORDER=
